HIERARCHY
ROOT mixamorig:Hips
{
	OFFSET -0.000008 104.274872 1.554316
	CHANNELS 6 Xposition Yposition Zposition Xrotation Yrotation Zrotation
	JOINT mixamorig:Spine
	{
		OFFSET -0.000005 10.181595 0.131519
		CHANNELS 6 Xposition Yposition Zposition Xrotation Yrotation Zrotation
		JOINT mixamorig:Spine1
		{
			OFFSET -0.000000 9.893959 -1.470707
			CHANNELS 6 Xposition Yposition Zposition Xrotation Yrotation Zrotation
			JOINT mixamorig:Spine2
			{
				OFFSET -0.000000 9.220757 -1.370641
				CHANNELS 6 Xposition Yposition Zposition Xrotation Yrotation Zrotation
				JOINT mixamorig:Neck
				{
					OFFSET 0.000001 16.740417 -2.049036
					CHANNELS 6 Xposition Yposition Zposition Xrotation Yrotation Zrotation
					JOINT mixamorig:Head
					{
						OFFSET 0.000000 9.617874 1.685006
						CHANNELS 6 Xposition Yposition Zposition Xrotation Yrotation Zrotation
						JOINT mixamorig:HeadTop_End
						{
							OFFSET 0.000002 22.037354 7.501101
							CHANNELS 6 Xposition Yposition Zposition Xrotation Yrotation Zrotation
							End Site
							{
								OFFSET 0.000168 2310.654297 -282.823242
							}
						}
					}
				}
				JOINT mixamorig:RightShoulder
				{
					OFFSET -4.569970 11.014908 -2.160885
					CHANNELS 6 Xposition Yposition Zposition Xrotation Yrotation Zrotation
					JOINT mixamorig:RightArm
					{
						OFFSET -10.592851 -0.524811 -2.232101
						CHANNELS 6 Xposition Yposition Zposition Xrotation Yrotation Zrotation
						JOINT mixamorig:RightForeArm
						{
							OFFSET -27.841511 0.000031 -0.000004
							CHANNELS 6 Xposition Yposition Zposition Xrotation Yrotation Zrotation
							JOINT mixamorig:RightHand
							{
								OFFSET -28.328831 -0.000015 0.000015
								CHANNELS 6 Xposition Yposition Zposition Xrotation Yrotation Zrotation
								JOINT mixamorig:RightHandThumb1
								{
									OFFSET -2.464806 -1.573990 2.681852
									CHANNELS 6 Xposition Yposition Zposition Xrotation Yrotation Zrotation
									JOINT mixamorig:RightHandThumb2
									{
										OFFSET -3.215179 -1.872803 1.924282
										CHANNELS 6 Xposition Yposition Zposition Xrotation Yrotation Zrotation
										JOINT mixamorig:RightHandThumb3
										{
											OFFSET -2.654831 -1.527969 1.512609
											CHANNELS 6 Xposition Yposition Zposition Xrotation Yrotation Zrotation
											JOINT mixamorig:RightHandThumb4
											{
												OFFSET -2.018814 -1.152008 1.108052
												CHANNELS 6 Xposition Yposition Zposition Xrotation Yrotation Zrotation
												End Site
												{
													OFFSET -188.809540 -114.533607 132.431396
												}
											}
										}
									}
								}
								JOINT mixamorig:RightHandIndex1
								{
									OFFSET -9.108284 -0.517868 2.259835
									CHANNELS 6 Xposition Yposition Zposition Xrotation Yrotation Zrotation
									JOINT mixamorig:RightHandIndex2
									{
										OFFSET -3.699989 0.000000 0.001215
										CHANNELS 6 Xposition Yposition Zposition Xrotation Yrotation Zrotation
										JOINT mixamorig:RightHandIndex3
										{
											OFFSET -2.850006 0.000031 -0.000522
											CHANNELS 6 Xposition Yposition Zposition Xrotation Yrotation Zrotation
											JOINT mixamorig:RightHandIndex4
											{
												OFFSET -2.772186 -0.000015 -0.000020
												CHANNELS 6 Xposition Yposition Zposition Xrotation Yrotation Zrotation
												End Site
												{
													OFFSET -277.218445 0.000000 -0.050231
												}
											}
										}
									}
								}
								JOINT mixamorig:RightHandMiddle1
								{
									OFFSET -9.532516 -0.000031 -0.000023
									CHANNELS 6 Xposition Yposition Zposition Xrotation Yrotation Zrotation
									JOINT mixamorig:RightHandMiddle2
									{
										OFFSET -3.700005 -0.000015 0.003713
										CHANNELS 6 Xposition Yposition Zposition Xrotation Yrotation Zrotation
										JOINT mixamorig:RightHandMiddle3
										{
											OFFSET -2.949974 0.000015 -0.002054
											CHANNELS 6 Xposition Yposition Zposition Xrotation Yrotation Zrotation
											JOINT mixamorig:RightHandMiddle4
											{
												OFFSET -2.946640 0.000000 -0.000156
												CHANNELS 6 Xposition Yposition Zposition Xrotation Yrotation Zrotation
												End Site
												{
													OFFSET -294.664337 0.000000 -0.113670
												}
											}
										}
									}
								}
								JOINT mixamorig:RightHandRing1
								{
									OFFSET -9.103600 -0.043076 -1.865134
									CHANNELS 6 Xposition Yposition Zposition Xrotation Yrotation Zrotation
									JOINT mixamorig:RightHandRing2
									{
										OFFSET -3.379288 0.000000 -0.001055
										CHANNELS 6 Xposition Yposition Zposition Xrotation Yrotation Zrotation
										JOINT mixamorig:RightHandRing3
										{
											OFFSET -2.889687 -0.000015 0.000379
											CHANNELS 6 Xposition Yposition Zposition Xrotation Yrotation Zrotation
											JOINT mixamorig:RightHandRing4
											{
												OFFSET -2.638809 -0.000015 0.000941
												CHANNELS 6 Xposition Yposition Zposition Xrotation Yrotation Zrotation
												End Site
												{
													OFFSET -263.880371 0.000000 0.516020
												}
											}
										}
									}
								}
								JOINT mixamorig:RightHandPinky1
								{
									OFFSET -8.076683 -0.486710 -3.806280
									CHANNELS 6 Xposition Yposition Zposition Xrotation Yrotation Zrotation
									JOINT mixamorig:RightHandPinky2
									{
										OFFSET -3.600014 -0.000015 -0.003747
										CHANNELS 6 Xposition Yposition Zposition Xrotation Yrotation Zrotation
										JOINT mixamorig:RightHandPinky3
										{
											OFFSET -2.099983 0.000000 -0.005739
											CHANNELS 6 Xposition Yposition Zposition Xrotation Yrotation Zrotation
											JOINT mixamorig:RightHandPinky4
											{
												OFFSET -2.115768 -0.000031 -0.003680
												CHANNELS 6 Xposition Yposition Zposition Xrotation Yrotation Zrotation
												End Site
												{
													OFFSET -211.577087 0.000000 -0.350686
												}
											}
										}
									}
								}
							}
						}
					}
				}
				JOINT mixamorig:LeftShoulder
				{
					OFFSET 4.570447 11.014725 -2.160855
					CHANNELS 6 Xposition Yposition Zposition Xrotation Yrotation Zrotation
					JOINT mixamorig:LeftArm
					{
						OFFSET 10.592371 -0.524597 -2.232119
						CHANNELS 6 Xposition Yposition Zposition Xrotation Yrotation Zrotation
						JOINT mixamorig:LeftForeArm
						{
							OFFSET 27.841532 -0.000031 0.000026
							CHANNELS 6 Xposition Yposition Zposition Xrotation Yrotation Zrotation
							JOINT mixamorig:LeftHand
							{
								OFFSET 28.328846 -0.000061 0.000022
								CHANNELS 6 Xposition Yposition Zposition Xrotation Yrotation Zrotation
								JOINT mixamorig:LeftHandThumb1
								{
									OFFSET 2.466141 -1.576172 2.681732
									CHANNELS 6 Xposition Yposition Zposition Xrotation Yrotation Zrotation
									JOINT mixamorig:LeftHandThumb2
									{
										OFFSET 3.217812 -1.872070 1.916482
										CHANNELS 6 Xposition Yposition Zposition Xrotation Yrotation Zrotation
										JOINT mixamorig:LeftHandThumb3
										{
											OFFSET 2.656029 -1.528778 1.514513
											CHANNELS 6 Xposition Yposition Zposition Xrotation Yrotation Zrotation
											JOINT mixamorig:LeftHandThumb4
											{
												OFFSET 2.020889 -1.154053 1.115139
												CHANNELS 6 Xposition Yposition Zposition Xrotation Yrotation Zrotation
												End Site
												{
													OFFSET 190.885437 -115.081749 130.048782
												}
											}
										}
									}
								}
								JOINT mixamorig:LeftHandIndex1
								{
									OFFSET 9.109314 -0.518021 2.259871
									CHANNELS 6 Xposition Yposition Zposition Xrotation Yrotation Zrotation
									JOINT mixamorig:LeftHandIndex2
									{
										OFFSET 3.699989 0.000000 -0.000322
										CHANNELS 6 Xposition Yposition Zposition Xrotation Yrotation Zrotation
										JOINT mixamorig:LeftHandIndex3
										{
											OFFSET 2.850006 0.000000 0.000352
											CHANNELS 6 Xposition Yposition Zposition Xrotation Yrotation Zrotation
											JOINT mixamorig:LeftHandIndex4
											{
												OFFSET 2.774864 -0.000031 -0.000027
												CHANNELS 6 Xposition Yposition Zposition Xrotation Yrotation Zrotation
												End Site
												{
													OFFSET 277.486267 0.000000 -0.009857
												}
											}
										}
									}
								}
								JOINT mixamorig:LeftHandMiddle1
								{
									OFFSET 9.533394 0.000061 0.000044
									CHANNELS 6 Xposition Yposition Zposition Xrotation Yrotation Zrotation
									JOINT mixamorig:LeftHandMiddle2
									{
										OFFSET 3.699989 -0.000015 -0.000231
										CHANNELS 6 Xposition Yposition Zposition Xrotation Yrotation Zrotation
										JOINT mixamorig:LeftHandMiddle3
										{
											OFFSET 2.949997 -0.000015 -0.000059
											CHANNELS 6 Xposition Yposition Zposition Xrotation Yrotation Zrotation
											JOINT mixamorig:LeftHandMiddle4
											{
												OFFSET 2.952896 0.000031 0.000063
												CHANNELS 6 Xposition Yposition Zposition Xrotation Yrotation Zrotation
												End Site
												{
													OFFSET 295.289337 0.000000 0.022810
												}
											}
										}
									}
								}
								JOINT mixamorig:LeftHandRing1
								{
									OFFSET 9.104523 -0.042999 -1.865074
									CHANNELS 6 Xposition Yposition Zposition Xrotation Yrotation Zrotation
									JOINT mixamorig:LeftHandRing2
									{
										OFFSET 3.150009 -0.000031 0.000043
										CHANNELS 6 Xposition Yposition Zposition Xrotation Yrotation Zrotation
										JOINT mixamorig:LeftHandRing3
										{
											OFFSET 2.949982 -0.000015 0.000040
											CHANNELS 6 Xposition Yposition Zposition Xrotation Yrotation Zrotation
											JOINT mixamorig:LeftHandRing4
											{
												OFFSET 2.644348 0.000000 0.000057
												CHANNELS 6 Xposition Yposition Zposition Xrotation Yrotation Zrotation
												End Site
												{
													OFFSET 264.434631 0.000000 0.012105
												}
											}
										}
									}
								}
								JOINT mixamorig:LeftHandPinky1
								{
									OFFSET 8.077789 -0.486847 -3.806259
									CHANNELS 6 Xposition Yposition Zposition Xrotation Yrotation Zrotation
									JOINT mixamorig:LeftHandPinky2
									{
										OFFSET 3.599953 0.000031 0.014727
										CHANNELS 6 Xposition Yposition Zposition Xrotation Yrotation Zrotation
										JOINT mixamorig:LeftHandPinky3
										{
											OFFSET 2.100021 0.000015 0.007705
											CHANNELS 6 Xposition Yposition Zposition Xrotation Yrotation Zrotation
											JOINT mixamorig:LeftHandPinky4
											{
												OFFSET 2.125504 0.000031 0.007517
												CHANNELS 6 Xposition Yposition Zposition Xrotation Yrotation Zrotation
												End Site
												{
													OFFSET 212.550781 0.000000 0.625752
												}
											}
										}
									}
								}
							}
						}
					}
				}
			}
		}
	}
	JOINT mixamorig:RightUpLeg
	{
		OFFSET -8.207787 -6.751648 -1.599560
		CHANNELS 6 Xposition Yposition Zposition Xrotation Yrotation Zrotation
		JOINT mixamorig:RightLeg
		{
			OFFSET -0.000002 -44.370117 0.345942
			CHANNELS 6 Xposition Yposition Zposition Xrotation Yrotation Zrotation
			JOINT mixamorig:RightFoot
			{
				OFFSET 0.000003 -44.423679 -3.043532
				CHANNELS 6 Xposition Yposition Zposition Xrotation Yrotation Zrotation
				JOINT mixamorig:RightToeBase
				{
					OFFSET -0.000002 -8.728671 10.710558
					CHANNELS 6 Xposition Yposition Zposition Xrotation Yrotation Zrotation
					JOINT mixamorig:RightToe_End
					{
						OFFSET -0.000001 -0.000679 9.278119
						CHANNELS 6 Xposition Yposition Zposition Xrotation Yrotation Zrotation
						End Site
						{
							OFFSET 0.000000 -0.067690 927.812134
						}
					}
				}
			}
		}
	}
	JOINT mixamorig:LeftUpLeg
	{
		OFFSET 8.207793 -6.751686 -1.599556
		CHANNELS 6 Xposition Yposition Zposition Xrotation Yrotation Zrotation
		JOINT mixamorig:LeftLeg
		{
			OFFSET -0.000004 -44.370014 0.346954
			CHANNELS 6 Xposition Yposition Zposition Xrotation Yrotation Zrotation
			JOINT mixamorig:LeftFoot
			{
				OFFSET -0.000001 -44.423672 -3.044401
				CHANNELS 6 Xposition Yposition Zposition Xrotation Yrotation Zrotation
				JOINT mixamorig:LeftToeBase
				{
					OFFSET -0.000002 -8.728669 10.710558
					CHANNELS 6 Xposition Yposition Zposition Xrotation Yrotation Zrotation
					JOINT mixamorig:LeftToe_End
					{
						OFFSET -0.000003 -0.000679 9.278133
						CHANNELS 6 Xposition Yposition Zposition Xrotation Yrotation Zrotation
						End Site
						{
							OFFSET 0.000000 -0.068021 927.813477
						}
					}
				}
			}
		}
	}
}
MOTION
Frames: 3
Frame Time: 0.033333
0.000006 104.270477 1.554256 0.000010 0.000003 -0.000113 -0.000005 10.181587 0.131522 0.000001 -0.000003 0.000084 -0.000000 9.893967 -1.470711 0.000001 0.000000 -0.000000 -0.000000 9.220802 -1.370642 0.000000 -0.000000 -0.000000 0.000001 16.740433 -2.049030 0.000000 -0.000000 -0.000000 0.000000 9.617859 1.685014 0.000000 0.000000 0.000000 0.000002 22.037384 7.501101 0.000000 -0.000000 0.000000 -4.569968 11.014880 -2.160881 0.000008 0.000001 -0.000038 -10.592869 -0.524777 -2.231890 73.570925 32.745286 -24.779025 -27.841526 0.000003 0.000552 -53.396513 107.368197 68.762164 -28.328804 0.000020 0.000032 -0.000324 -0.000043 0.000003 -2.464427 -1.573960 2.682378 -25.226827 -150.854618 34.141698 -3.215251 -1.872557 1.924631 152.142532 34.003042 22.290452 -2.654956 -1.527867 1.513070 148.590670 27.230229 -31.328032 -2.018831 -1.152013 1.108058 -0.000002 -0.000001 0.000004 -9.108358 -0.517560 2.260187 113.053250 15.085907 -22.718015 -3.700064 0.000325 0.001554 107.765823 9.574823 -13.064645 -2.850059 0.000378 -0.000210 109.089036 6.301915 -8.839613 -2.772177 -0.000015 -0.000023 -0.000001 -0.000001 -0.000001 -9.532564 0.000262 0.000297 105.983034 15.645161 -20.845811 -3.700062 0.000346 0.004014 106.243879 8.665267 -11.412051 -2.950031 0.000356 -0.001733 108.153477 7.618078 -10.491653 -2.946617 0.000013 -0.000153 -0.000000 -0.000000 0.000000 -9.103701 -0.042782 -1.864828 104.633205 18.634226 -23.924770 -3.379334 0.000320 -0.000761 106.680745 9.679713 -13.003991 -2.889757 0.000355 0.000699 110.686972 6.230803 -9.068813 -2.638825 -0.000002 0.000937 0.000002 0.000001 0.000000 -8.076742 -0.486413 -3.806040 81.641115 20.414548 -17.546194 -3.600066 0.000252 -0.003530 86.842857 11.701286 -10.727546 -2.100030 0.000317 -0.005474 90.907673 7.061295 -6.946505 -2.115771 -0.000040 -0.003680 -0.000005 -0.000001 -0.000002 4.570446 11.014691 -2.160851 -0.000018 0.000010 -0.000021 10.592427 -0.524461 -2.232384 75.159320 -22.666143 17.535510 27.841827 0.000056 -0.000173 102.299609 -71.794885 83.887550 28.328829 -0.000043 0.000018 0.000032 -0.000092 0.000001 2.466016 -1.576167 2.681907 -34.526207 157.466159 -19.331153 3.217815 -1.871759 1.916360 157.618390 -30.391623 4.765418 2.656096 -1.528605 1.514448 143.840369 -27.306891 38.799320 2.020899 -1.154077 1.115144 0.000002 0.000005 0.000002 9.109357 -0.517820 2.259733 95.230227 -13.519754 14.786945 3.700030 0.000187 -0.000473 92.945563 -10.970976 11.563574 2.850044 0.000223 0.000210 91.725732 -10.706305 11.030420 2.774901 -0.000031 -0.000024 -0.000003 -0.000001 0.000001 9.533459 0.000236 -0.000102 89.216197 -14.309928 14.108884 3.700039 0.000184 -0.000378 90.374468 -12.387524 12.465414 2.950074 0.000170 -0.000200 90.708573 -16.321186 16.524593 2.952865 -0.000030 0.000066 0.000003 -0.000000 0.000000 9.104579 -0.042840 -1.865231 88.353018 -14.359305 13.958298 3.150053 0.000203 -0.000080 93.613651 -14.135105 15.047702 2.950022 0.000158 -0.000053 96.843169 -16.251487 18.287478 2.644318 0.000031 0.000059 0.000003 -0.000000 -0.000000 8.077832 -0.486731 -3.806382 71.495818 -18.479722 13.798412 3.600011 0.000152 0.014578 73.162029 -15.462514 11.899670 2.100060 0.000170 0.007541 77.236510 -13.901874 11.521431 2.125502 -0.000014 0.007515 -0.000001 0.000001 0.000000 -8.207786 -6.751667 -1.599560 -0.077001 -0.000003 0.000080 -0.000002 -44.370110 0.345938 0.153719 -0.000000 -0.000000 0.000000 -44.423679 -3.043532 -0.076700 0.000000 -0.000002 -0.000006 -8.728667 10.710559 -0.000009 -0.000000 -0.000000 -0.000001 -0.000679 9.278123 0.000000 -0.000000 -0.000000 8.207792 -6.751710 -1.599556 -0.074518 -0.000003 0.000081 -0.000002 -44.370014 0.346960 0.148822 0.000002 0.000000 -0.000001 -44.423664 -3.044403 -0.074314 0.000000 -0.000002 -0.000004 -8.728671 10.710558 0.000007 -0.000000 -0.000000 0.000000 -0.000680 9.278137 -0.000000 0.000000 -0.000001 
0.000006 104.270477 1.554256 0.000010 0.000003 -0.000113 -0.000005 10.181587 0.131522 0.000001 -0.000003 0.000084 -0.000000 9.893967 -1.470711 0.000001 0.000000 -0.000000 -0.000000 9.220802 -1.370642 0.000000 -0.000000 -0.000000 0.000001 16.740433 -2.049030 0.000000 -0.000000 -0.000000 0.000000 9.617859 1.685014 0.000000 0.000000 0.000000 0.000002 22.037384 7.501101 0.000000 -0.000000 0.000000 -4.569968 11.014880 -2.160881 0.000008 0.000001 -0.000038 -10.592854 -0.524798 -2.231842 73.799470 40.968322 -31.335644 -27.841516 0.000006 0.000538 -50.665384 105.136528 63.470721 -28.328817 0.000005 0.000034 -0.000320 -0.000043 0.000006 -2.464412 -1.573889 2.682347 -35.317723 -150.794294 14.941532 -3.215227 -1.872471 1.924601 145.372763 33.732286 37.546007 -2.654971 -1.527861 1.513060 146.731916 27.919448 -26.809939 -2.018831 -1.152017 1.108060 0.000001 0.000001 0.000004 -9.108370 -0.517542 2.260196 112.636663 14.112186 -21.111338 -3.700075 0.000310 0.001566 108.808397 11.067442 -15.383804 -2.850075 0.000380 -0.000199 108.912045 8.780510 -12.265636 -2.772175 0.000000 -0.000019 0.000001 0.000005 -0.000001 -9.532585 0.000261 0.000288 105.364697 15.447168 -20.361658 -3.700056 0.000337 0.004026 106.848283 11.083202 -14.772876 -2.950044 0.000333 -0.001733 108.373266 10.509754 -14.517892 -2.946610 0.000001 -0.000150 -0.000000 0.000001 0.000000 -9.103703 -0.042770 -1.864834 102.211903 18.495877 -22.766089 -3.379323 0.000306 -0.000732 108.323132 10.847440 -15.002623 -2.889763 0.000323 0.000730 112.194040 8.479343 -12.658783 -2.638795 0.000001 0.000938 -0.000002 0.000004 0.000000 -8.076774 -0.486404 -3.806030 83.146058 23.096816 -20.404239 -3.600060 0.000267 -0.003509 86.401080 12.903011 -11.770663 -2.100038 0.000312 -0.005506 87.508766 6.880386 -6.374440 -2.115762 -0.000055 -0.003683 0.000004 -0.000000 -0.000005 4.570446 11.014691 -2.160851 -0.000018 0.000010 -0.000021 10.592440 -0.524466 -2.232387 74.316802 -26.338845 20.112310 27.841827 0.000028 -0.000185 104.926254 -75.389422 90.326595 28.328823 -0.000028 0.000020 0.000020 -0.000089 0.000000 2.466076 -1.576154 2.681901 -25.706821 158.351037 -38.297554 3.217817 -1.871758 1.916372 162.293354 -29.855802 8.479325 2.656102 -1.528635 1.514451 143.941292 -26.468943 49.661848 2.020895 -1.154082 1.115144 0.000001 -0.000003 0.000001 9.109376 -0.517830 2.259743 96.191016 -16.221324 18.033352 3.700039 0.000192 -0.000468 94.197871 -10.910489 11.752812 2.850049 0.000241 0.000199 92.811097 -8.706231 9.141097 2.774869 -0.000030 -0.000029 -0.000002 0.000001 -0.000002 9.533466 0.000241 -0.000097 90.758591 -16.516673 16.724710 3.700036 0.000187 -0.000374 90.594174 -10.743107 10.851771 2.950040 0.000194 -0.000210 92.047024 -11.145529 11.551312 2.952873 -0.000031 0.000063 0.000002 0.000000 0.000000 9.104581 -0.042847 -1.865234 88.295085 -16.705859 16.224525 3.150045 0.000219 -0.000108 93.453210 -11.733704 12.459457 2.950013 0.000193 -0.000077 95.876936 -10.939892 12.117325 2.644323 0.000031 0.000055 0.000003 0.000001 0.000001 8.077840 -0.486746 -3.806395 72.629308 -18.791736 14.318307 3.600012 0.000159 0.014577 74.902259 -15.519703 12.322382 2.100034 0.000172 0.007544 78.469352 -11.698013 9.958135 2.125496 -0.000015 0.007515 -0.000000 0.000001 -0.000000 -8.207786 -6.751667 -1.599560 -0.077001 -0.000003 0.000080 -0.000002 -44.370110 0.345938 0.153719 -0.000000 -0.000000 0.000000 -44.423679 -3.043532 -0.076700 0.000000 -0.000002 -0.000006 -8.728667 10.710559 -0.000009 -0.000000 -0.000000 -0.000001 -0.000679 9.278123 0.000000 -0.000000 -0.000000 8.207792 -6.751710 -1.599556 -0.074518 -0.000003 0.000081 -0.000002 -44.370014 0.346960 0.148822 0.000002 0.000000 -0.000001 -44.423664 -3.044403 -0.074314 0.000000 -0.000002 -0.000004 -8.728671 10.710558 0.000007 -0.000000 -0.000000 0.000000 -0.000680 9.278137 -0.000000 0.000000 -0.000001 
0.000006 104.270477 1.554256 0.000010 0.000003 -0.000113 -0.000005 10.181587 0.131522 0.000001 -0.000003 0.000084 -0.000000 9.893967 -1.470711 0.000001 0.000000 -0.000000 -0.000000 9.220802 -1.370642 0.000000 -0.000000 -0.000000 0.000001 16.740433 -2.049030 0.000000 -0.000000 -0.000000 0.000000 9.617859 1.685014 0.000000 0.000000 0.000000 0.000002 22.037384 7.501101 0.000000 -0.000000 0.000000 -4.569968 11.014880 -2.160881 0.000008 0.000001 -0.000038 -10.592854 -0.524803 -2.231831 74.073757 43.208770 -33.274380 -27.841528 -0.000005 0.000539 -49.679388 103.595726 60.928265 -28.328848 0.000007 0.000024 -0.000322 -0.000045 0.000008 -2.464397 -1.573913 2.682363 -32.096541 -148.537982 20.106644 -3.215203 -1.872486 1.924593 144.442614 33.712168 41.026071 -2.654965 -1.527871 1.513054 146.724539 27.860712 -27.474236 -2.018834 -1.151979 1.108062 -0.000001 -0.000001 0.000002 -9.108360 -0.517540 2.260200 112.442160 13.760926 -20.519627 -3.700050 0.000321 0.001564 109.299173 10.645993 -14.933380 -2.850065 0.000381 -0.000211 108.691327 8.607467 -11.976278 -2.772162 -0.000014 -0.000017 0.000001 0.000002 -0.000001 -9.532579 0.000289 0.000311 105.186279 14.662751 -19.282734 -3.700071 0.000340 0.004035 107.213165 10.270714 -13.777266 -2.950058 0.000337 -0.001770 108.037487 10.022986 -13.763943 -2.946619 0.000015 -0.000158 -0.000001 0.000002 0.000000 -9.103703 -0.042746 -1.864831 102.352126 18.152889 -22.401388 -3.379344 0.000294 -0.000723 109.588630 10.526326 -14.901700 -2.889770 0.000326 0.000729 113.479461 8.711933 -13.320395 -2.638821 -0.000013 0.000939 -0.000004 -0.000001 -0.000001 -8.076778 -0.486410 -3.806000 83.626814 24.353830 -21.706343 -3.600055 0.000262 -0.003512 86.837543 13.335494 -12.268318 -2.100034 0.000306 -0.005495 88.387094 7.277286 -6.857577 -2.115762 -0.000068 -0.003678 0.000001 0.000000 0.000001 4.570446 11.014691 -2.160851 -0.000018 0.000010 -0.000021 10.592447 -0.524469 -2.232395 73.488478 -30.672160 23.142469 27.841822 0.000040 -0.000185 107.686115 -76.406765 94.247533 28.328814 -0.000027 0.000030 0.000021 -0.000090 0.000001 2.466126 -1.576180 2.681902 -20.236273 157.689998 -48.166426 3.217815 -1.871759 1.916392 163.263829 -29.553884 9.921924 2.656104 -1.528646 1.514465 143.301576 -26.550875 51.222997 2.020879 -1.154069 1.115148 0.000001 0.000001 0.000004 9.109385 -0.517825 2.259741 95.940723 -16.644116 18.422424 3.700032 0.000196 -0.000472 94.282142 -11.284733 12.172802 2.850049 0.000217 0.000225 93.163753 -8.914597 9.417420 2.774880 -0.000046 -0.000028 -0.000000 0.000001 -0.000000 9.533465 0.000214 -0.000084 90.427053 -17.003594 17.119924 3.700048 0.000183 -0.000387 90.489283 -10.985845 11.076814 2.950050 0.000197 -0.000211 92.327260 -11.281161 11.748754 2.952873 -0.000045 0.000064 0.000003 -0.000000 0.000000 9.104601 -0.042851 -1.865215 88.099038 -17.101580 16.553155 3.150055 0.000210 -0.000089 92.918665 -11.712114 12.321783 2.950022 0.000197 -0.000076 95.592432 -10.797951 11.901225 2.644324 0.000046 0.000055 -0.000002 0.000001 0.000000 8.077845 -0.486744 -3.806401 72.439661 -19.290872 14.641909 3.600014 0.000175 0.014564 74.549596 -15.644033 12.340679 2.100036 0.000176 0.007533 78.124353 -11.629949 9.841709 2.125489 -0.000000 0.007513 -0.000001 -0.000000 -0.000000 -8.207786 -6.751667 -1.599560 -0.077001 -0.000003 0.000080 -0.000002 -44.370110 0.345938 0.153719 -0.000000 -0.000000 0.000000 -44.423679 -3.043532 -0.076700 0.000000 -0.000002 -0.000006 -8.728667 10.710559 -0.000009 -0.000000 -0.000000 -0.000001 -0.000679 9.278123 0.000000 -0.000000 -0.000000 8.207792 -6.751710 -1.599556 -0.074518 -0.000003 0.000081 -0.000002 -44.370014 0.346960 0.148822 0.000002 0.000000 -0.000001 -44.423664 -3.044403 -0.074314 0.000000 -0.000002 -0.000004 -8.728671 10.710558 0.000007 -0.000000 -0.000000 0.000000 -0.000680 9.278137 -0.000000 0.000000 -0.000001 
